<svg width="20" height="20" viewBox="0 0 20 20" fill="none" xmlns="http://www.w3.org/2000/svg">
<g id="arrow-down-bold 1">
<path id="Vector" d="M11.9133 3.71169L17.5383 9.33669C17.6257 9.42379 17.695 9.52728 17.7423 9.64124C17.7897 9.75519 17.814 9.87737 17.814 10.0008C17.814 10.1241 17.7897 10.2463 17.7423 10.3603C17.695 10.4742 17.6257 10.5777 17.5383 10.6648L11.9133 16.2898C11.7372 16.4659 11.4983 16.5649 11.2492 16.5649C11.0001 16.5649 10.7613 16.4659 10.5852 16.2898C10.409 16.1137 10.3101 15.8748 10.3101 15.6258C10.3101 15.3767 10.409 15.1378 10.5852 14.9617L14.6094 10.9375L3.125 10.9375C2.87636 10.9375 2.6379 10.8387 2.46209 10.6629C2.28627 10.4871 2.1875 10.2486 2.1875 9.99997C2.1875 9.75133 2.28627 9.51288 2.46209 9.33706C2.6379 9.16125 2.87636 9.06247 3.125 9.06247L14.6094 9.06247L10.5844 5.03826C10.4083 4.86214 10.3093 4.62326 10.3093 4.37419C10.3093 4.12512 10.4083 3.88625 10.5844 3.71013C10.7605 3.53401 10.9994 3.43506 11.2484 3.43506C11.4975 3.43506 11.7364 3.53401 11.9125 3.71013L11.9133 3.71169Z" fill="white"/>
</g>
</svg>
