<svg>
<g id="4">
                                <g id="BG_4">
                                    <circle cx="134" cy="14.5837" r="14" fill="white" />
                                    <circle cx="134" cy="14.5837" r="13.5" stroke="black" stroke-opacity="0.2" />
                                </g>
                                <g id="logo-github 1">
                                    <g id="Group_4">
                                        <path id="Vector_6" fill-rule="evenodd" clip-rule="evenodd" d="M134.607 7.8103C131.016 7.8103 128.127 10.6993 128.127 14.2902C128.127 17.1522 129.99 19.5821 132.555 20.4461C132.879 20.5001 132.987 20.3111 132.987 20.1221C132.987 19.9601 132.987 19.5551 132.987 19.0151C131.178 19.4201 130.8 18.1511 130.8 18.1511C130.503 17.3951 130.071 17.2062 130.071 17.2062C129.477 16.8012 130.125 16.8012 130.125 16.8012C130.773 16.8552 131.124 17.4761 131.124 17.4761C131.691 18.4751 132.636 18.1781 133.014 18.0161C133.068 17.5841 133.23 17.3142 133.419 17.1522C131.988 16.9902 130.476 16.4232 130.476 13.9392C130.476 13.2372 130.719 12.6432 131.151 12.2112C131.097 12.0492 130.854 11.4012 131.205 10.4833C131.205 10.4833 131.745 10.3213 132.987 11.1582C133.5 11.0233 134.067 10.9423 134.607 10.9423C135.147 10.9423 135.714 11.0233 136.227 11.1582C137.469 10.3213 138.009 10.4833 138.009 10.4833C138.36 11.3742 138.144 12.0222 138.063 12.2112C138.468 12.6702 138.738 13.2372 138.738 13.9392C138.738 16.4232 137.226 16.9632 135.768 17.1252C136.011 17.3141 136.2 17.7191 136.2 18.3131C136.2 19.1771 136.2 19.8791 136.2 20.0951C136.2 20.2571 136.308 20.4731 136.659 20.4191C139.224 19.5821 141.087 17.1522 141.087 14.2902C141.087 10.6993 138.198 7.8103 134.607 7.8103Z" fill="white" />
                                    </g>
                                </g>
                            </g>
</svg>