<svg>
<g id="3">
                                <g id="BG_3">
                                    <circle cx="94" cy="14.5837" r="14" fill="white" />
                                    <circle cx="94" cy="14.5837" r="13.5" stroke="black" stroke-opacity="0.2" />
                                </g>
                                <g id="logo-instagram 1">
                                    <g id="Group_3">
                                        <path id="Vector_3" d="M94.0008 9.03095C95.8095 9.03095 96.0237 9.03772 96.7382 9.0703C97.1678 9.07556 97.5933 9.15444 97.9962 9.30353C98.2884 9.41622 98.5538 9.58885 98.7753 9.8103C98.9967 10.0318 99.1694 10.2971 99.282 10.5893C99.4311 10.9923 99.51 11.4178 99.5153 11.8474C99.5475 12.5619 99.5546 12.7761 99.5546 14.5848C99.5546 16.3935 99.5479 16.6077 99.5153 17.3222C99.51 17.7518 99.4311 18.1774 99.282 18.5803C99.1694 18.8725 98.9967 19.1379 98.7753 19.3593C98.5538 19.5808 98.2884 19.7534 97.9962 19.8661C97.5933 20.0152 97.1678 20.0941 96.7382 20.0993C96.024 20.1316 95.8098 20.1387 94.0008 20.1387C92.1917 20.1387 91.9775 20.1319 91.2633 20.0993C90.8337 20.0941 90.4082 20.0152 90.0053 19.8661C89.7131 19.7534 89.4477 19.5808 89.2262 19.3593C89.0048 19.1379 88.8322 18.8725 88.7195 18.5803C88.5704 18.1774 88.4915 17.7518 88.4862 17.3222C88.454 16.6077 88.4469 16.3935 88.4469 14.5848C88.4469 12.7761 88.4537 12.5619 88.4862 11.8474C88.4915 11.4178 88.5704 10.9923 88.7195 10.5893C88.8322 10.2971 89.0048 10.0318 89.2262 9.8103C89.4477 9.58885 89.7131 9.41622 90.0053 9.30353C90.4082 9.15444 90.8337 9.07556 91.2633 9.0703C91.9779 9.03804 92.192 9.03095 94.0008 9.03095ZM94.0008 7.8103C92.162 7.8103 91.9304 7.81804 91.2079 7.85095C90.6456 7.86213 90.0893 7.96859 89.5627 8.16579C89.1109 8.336 88.7017 8.60274 88.3637 8.9474C88.0187 9.28558 87.7517 9.69501 87.5814 10.1471C87.3842 10.6737 87.2777 11.23 87.2666 11.7922C87.2343 12.5142 87.2266 12.7458 87.2266 14.5845C87.2266 16.4232 87.2343 16.6548 87.2672 17.3774C87.2784 17.9396 87.3848 18.4959 87.582 19.0226C87.7522 19.4746 88.0189 19.884 88.3637 20.2222C88.7019 20.567 89.1113 20.8337 89.5633 21.0038C90.09 21.201 90.6463 21.3075 91.2085 21.3187C91.9311 21.3509 92.1617 21.3593 94.0014 21.3593C95.8411 21.3593 96.0717 21.3516 96.7943 21.3187C97.3565 21.3075 97.9128 21.201 98.4395 21.0038C98.8893 20.8295 99.2978 20.5631 99.6389 20.2219C99.98 19.8806 100.246 19.4719 100.42 19.0219C100.617 18.4953 100.724 17.939 100.735 17.3768C100.767 16.6548 100.775 16.4232 100.775 14.5845C100.775 12.7458 100.767 12.5142 100.734 11.7916C100.723 11.2293 100.617 10.6731 100.419 10.1464C100.249 9.69442 99.9826 9.285 99.6379 8.94675C99.2996 8.60202 98.8902 8.33527 98.4382 8.16514C97.9115 7.96794 97.3553 7.86149 96.793 7.8503C96.0711 7.81804 95.8395 7.8103 94.0008 7.8103Z" fill="white" />
                                        <path id="Vector_4" d="M94.0021 11.1072C93.3141 11.1072 92.6416 11.3112 92.0695 11.6934C91.4974 12.0757 91.0515 12.619 90.7882 13.2546C90.5249 13.8903 90.4561 14.5897 90.5903 15.2645C90.7245 15.9394 91.0558 16.5592 91.5423 17.0457C92.0288 17.5322 92.6487 17.8635 93.3235 17.9978C93.9983 18.132 94.6977 18.0631 95.3334 17.7998C95.969 17.5365 96.5123 17.0906 96.8946 16.5186C97.2768 15.9465 97.4809 15.2739 97.4809 14.5859C97.4809 13.6633 97.1144 12.7785 96.462 12.1261C95.8096 11.4737 94.9248 11.1072 94.0021 11.1072ZM94.0021 16.844C93.5555 16.844 93.119 16.7115 92.7476 16.4634C92.3763 16.2153 92.0869 15.8626 91.916 15.45C91.7451 15.0374 91.7003 14.5834 91.7875 14.1454C91.8746 13.7073 92.0897 13.305 92.4055 12.9892C92.7213 12.6734 93.1236 12.4583 93.5616 12.3712C93.9996 12.2841 94.4537 12.3288 94.8663 12.4997C95.2789 12.6706 95.6315 12.96 95.8797 13.3314C96.1278 13.7027 96.2602 14.1393 96.2602 14.5859C96.2602 15.1848 96.0223 15.7591 95.5988 16.1826C95.1754 16.606 94.601 16.844 94.0021 16.844Z" fill="white" />
                                        <path id="Vector_5" d="M97.6176 11.7818C98.0665 11.7818 98.4305 11.4179 98.4305 10.9689C98.4305 10.52 98.0665 10.156 97.6176 10.156C97.1686 10.156 96.8047 10.52 96.8047 10.9689C96.8047 11.4179 97.1686 11.7818 97.6176 11.7818Z" fill="white" />
                                    </g>
                                </g>
                            </g>
</svg>