<svg width="20" height="20" viewBox="0 0 20 20" fill="none" xmlns="http://www.w3.org/2000/svg">
<g id="Frame">
<path id="Vector" d="M10.9375 9.6875V16.875C10.9375 17.1236 10.8387 17.3621 10.6629 17.5379C10.4871 17.7137 10.2486 17.8125 10 17.8125C9.75136 17.8125 9.5129 17.7137 9.33709 17.5379C9.16127 17.3621 9.0625 17.1236 9.0625 16.875V9.6875C9.0625 9.43886 9.16127 9.2004 9.33709 9.02459C9.5129 8.84877 9.75136 8.75 10 8.75C10.2486 8.75 10.4871 8.84877 10.6629 9.02459C10.8387 9.2004 10.9375 9.43886 10.9375 9.6875ZM15.625 15C15.3764 15 15.1379 15.0988 14.9621 15.2746C14.7863 15.4504 14.6875 15.6889 14.6875 15.9375V16.875C14.6875 17.1236 14.7863 17.3621 14.9621 17.5379C15.1379 17.7137 15.3764 17.8125 15.625 17.8125C15.8736 17.8125 16.1121 17.7137 16.2879 17.5379C16.4637 17.3621 16.5625 17.1236 16.5625 16.875V15.9375C16.5625 15.6889 16.4637 15.4504 16.2879 15.2746C16.1121 15.0988 15.8736 15 15.625 15ZM17.5 11.875H16.5625V3.125C16.5625 2.87636 16.4637 2.6379 16.2879 2.46209C16.1121 2.28627 15.8736 2.1875 15.625 2.1875C15.3764 2.1875 15.1379 2.28627 14.9621 2.46209C14.7863 2.6379 14.6875 2.87636 14.6875 3.125V11.875H13.75C13.5014 11.875 13.2629 11.9738 13.0871 12.1496C12.9113 12.3254 12.8125 12.5639 12.8125 12.8125C12.8125 13.0611 12.9113 13.2996 13.0871 13.4754C13.2629 13.6512 13.5014 13.75 13.75 13.75H17.5C17.7486 13.75 17.9871 13.6512 18.1629 13.4754C18.3387 13.2996 18.4375 13.0611 18.4375 12.8125C18.4375 12.5639 18.3387 12.3254 18.1629 12.1496C17.9871 11.9738 17.7486 11.875 17.5 11.875ZM4.375 12.5C4.12636 12.5 3.8879 12.5988 3.71209 12.7746C3.53627 12.9504 3.4375 13.1889 3.4375 13.4375V16.875C3.4375 17.1236 3.53627 17.3621 3.71209 17.5379C3.8879 17.7137 4.12636 17.8125 4.375 17.8125C4.62364 17.8125 4.8621 17.7137 5.03791 17.5379C5.21373 17.3621 5.3125 17.1236 5.3125 16.875V13.4375C5.3125 13.1889 5.21373 12.9504 5.03791 12.7746C4.8621 12.5988 4.62364 12.5 4.375 12.5ZM6.25 9.375H5.3125V3.125C5.3125 2.87636 5.21373 2.6379 5.03791 2.46209C4.8621 2.28627 4.62364 2.1875 4.375 2.1875C4.12636 2.1875 3.8879 2.28627 3.71209 2.46209C3.53627 2.6379 3.4375 2.87636 3.4375 3.125V9.375H2.5C2.25136 9.375 2.0129 9.47377 1.83709 9.64959C1.66127 9.8254 1.5625 10.0639 1.5625 10.3125C1.5625 10.5611 1.66127 10.7996 1.83709 10.9754C2.0129 11.1512 2.25136 11.25 2.5 11.25H6.25C6.49864 11.25 6.7371 11.1512 6.91291 10.9754C7.08873 10.7996 7.1875 10.5611 7.1875 10.3125C7.1875 10.0639 7.08873 9.8254 6.91291 9.64959C6.7371 9.47377 6.49864 9.375 6.25 9.375ZM11.875 5.625H10.9375V3.125C10.9375 2.87636 10.8387 2.6379 10.6629 2.46209C10.4871 2.28627 10.2486 2.1875 10 2.1875C9.75136 2.1875 9.5129 2.28627 9.33709 2.46209C9.16127 2.6379 9.0625 2.87636 9.0625 3.125V5.625H8.125C7.87636 5.625 7.6379 5.72377 7.46209 5.89959C7.28627 6.0754 7.1875 6.31386 7.1875 6.5625C7.1875 6.81114 7.28627 7.0496 7.46209 7.22541C7.6379 7.40123 7.87636 7.5 8.125 7.5H11.875C12.1236 7.5 12.3621 7.40123 12.5379 7.22541C12.7137 7.0496 12.8125 6.81114 12.8125 6.5625C12.8125 6.31386 12.7137 6.0754 12.5379 5.89959C12.3621 5.72377 12.1236 5.625 11.875 5.625Z" fill="black"/>
</g>
</svg>
